{
  "accessors": [
    {
      "name": "Cylinder-Mesh_positions",
      "componentType": 5126,
      "count": 2006,
      "min": [
        -110.8327407836914,
        0.17933699488639832,
        -26.34149742126465
      ],
      "max": [
        141.15060424804688,
        332.9116516113281,
        31.282546997070312
      ],
      "type": "VEC3",
      "bufferView": 0,
      "byteOffset": 0
    },
    {
      "name": "Cylinder-Mesh_normals",
      "componentType": 5126,
      "count": 2006,
      "min": [
        -1,
        -1,
        -1
      ],
      "max": [
        1,
        1,
        0.998199999332428
      ],
      "type": "VEC3",
      "bufferView": 0,
      "byteOffset": 24072
    },
    {
      "name": "Cylinder-Mesh_texcoords",
      "componentType": 5126,
      "count": 2006,
      "min": [
        0,
        0
      ],
      "max": [
        1,
        1
      ],
      "type": "VEC2",
      "bufferView": 1,
      "byteOffset": 0
    },
    {
      "name": "Cylinder-Mesh_0_indices",
      "componentType": 5123,
      "count": 3690,
      "min": [
        0
      ],
      "max": [
        2005
      ],
      "type": "SCALAR",
      "bufferView": 2,
      "byteOffset": 0
    }
  ],
  "asset": {
    "generator": "obj2gltf",
    "version": "2.0"
  },
  "buffers": [
    {
      "name": "windturbine",
      "byteLength": 71572,
      "uri": "data:application/octet-stream;base64,"
    }
  ],
  "bufferViews": [
    {
      "name": "bufferView_0",
      "buffer": 0,
      "byteLength": 48144,
      "byteOffset": 0,
      "byteStride": 12,
      "target": 34962
    },
    {
      "name": "bufferView_1",
      "buffer": 0,
      "byteLength": 16048,
      "byteOffset": 48144,
      "byteStride": 8,
      "target": 34962
    },
    {
      "name": "bufferView_2",
      "buffer": 0,
      "byteLength": 7380,
      "byteOffset": 64192,
      "target": 34963
    }
  ],
  "materials": [
    {
      "name": "None",
      "pbrMetallicRoughness": {
        "baseColorFactor": [
          0.8,
          0.8,
          0.8,
          1
        ],
        "metallicFactor": 0,
        "roughnessFactor": 0.5
      },
      "emissiveFactor": [
        0,
        0,
        0
      ],
      "alphaMode": "OPAQUE",
      "doubleSided": false
    }
  ],
  "meshes": [
    {
      "name": "Cylinder-Mesh",
      "primitives": [
        {
          "attributes": {
            "POSITION": 0,
            "NORMAL": 1,
            "TEXCOORD_0": 2
          },
          "indices": 3,
          "material": 0,
          "mode": 4
        }
      ]
    }
  ],
  "nodes": [
    {
      "name": "Cylinder",
      "mesh": 0
    }
  ],
  "scene": 0,
  "scenes": [
    {
      "nodes": [
        0
      ]
    }
  ]
}
